<?xml version="1.0" encoding="UTF-8" standalone="no"?>
<!-- Created with Inkscape (http://www.inkscape.org/) -->

<svg
   width="64mm"
   height="64mm"
   viewBox="0 0 64 64"
   version="1.1"
   id="svg5"
   xml:space="preserve"
   inkscape:version="1.2.2 (1:1.2.2+202212051552+b0a8486541)"
   sodipodi:docname="atom-ikonka.svg"
   xmlns:inkscape="http://www.inkscape.org/namespaces/inkscape"
   xmlns:sodipodi="http://sodipodi.sourceforge.net/DTD/sodipodi-0.dtd"
   xmlns="http://www.w3.org/2000/svg"
   xmlns:svg="http://www.w3.org/2000/svg"><sodipodi:namedview
     id="namedview7"
     pagecolor="#ffffff"
     bordercolor="#666666"
     borderopacity="1.0"
     inkscape:showpageshadow="2"
     inkscape:pageopacity="0.0"
     inkscape:pagecheckerboard="0"
     inkscape:deskcolor="#d1d1d1"
     inkscape:document-units="mm"
     showgrid="false"
     inkscape:zoom="12.030079"
     inkscape:cx="37.447802"
     inkscape:cy="83.166539"
     inkscape:window-width="1920"
     inkscape:window-height="1043"
     inkscape:window-x="1920"
     inkscape:window-y="0"
     inkscape:window-maximized="1"
     inkscape:current-layer="layer1" /><defs
     id="defs2" /><g
     inkscape:label="Layer 1"
     inkscape:groupmode="layer"
     id="layer1"
     transform="translate(-136.34242,-48.853911)"><circle
       style="fill:#f5002e;stroke:#535353;stroke-width:2.13929;stroke-linecap:round;stroke-linejoin:round;stroke-dasharray:none;stroke-opacity:1"
       id="path854"
       cx="168.05159"
       cy="80.853912"
       r="7.3959188" /><path
       id="circle2292"
       style="fill:#535353;fill-opacity:1;stroke:none;stroke-width:0.637555;stroke-linecap:round;stroke-linejoin:round;stroke-dasharray:none;stroke-opacity:1"
       d="m 164.69257,74.26992 a 7.3959191,7.3959191 0 0 0 -4.03681,6.583863 7.3959191,7.3959191 0 0 0 7.39587,7.395884 7.3959191,7.3959191 0 0 0 5.6351,-2.613431 7.3959191,7.3959191 0 0 1 -3.35905,0.812022 7.3959191,7.3959191 0 0 1 -7.39589,-7.395883 7.3959191,7.3959191 0 0 1 1.76078,-4.782455 z" /><ellipse
       style="fill:#ffffff;fill-opacity:1;stroke-width:0.0623173;stroke-linecap:round;stroke-linejoin:round"
       id="path1721"
       cx="98.234558"
       cy="160.87344"
       rx="1.0743232"
       ry="2.3416469"
       transform="rotate(-33.872402)" /><ellipse
       style="fill:none;fill-opacity:1;stroke:#535353;stroke-width:2.98833;stroke-linecap:round;stroke-linejoin:round;stroke-dasharray:none;stroke-opacity:1"
       id="path2199"
       ry="29.990992"
       rx="10.83018"
       cy="80.853912"
       cx="168.05159" /><ellipse
       style="fill:none;fill-opacity:1;stroke:#535353;stroke-width:2.98833;stroke-linecap:round;stroke-linejoin:round;stroke-dasharray:none;stroke-opacity:1"
       id="ellipse2271"
       ry="29.990992"
       rx="10.83018"
       cy="-92.762077"
       cx="161.78345"
       transform="rotate(55.522142)" /><ellipse
       style="fill:none;fill-opacity:1;stroke:#535353;stroke-width:2.98833;stroke-linecap:round;stroke-linejoin:round;stroke-dasharray:none;stroke-opacity:1"
       id="ellipse2273"
       ry="29.990992"
       rx="10.83018"
       cy="184.30289"
       cx="-28.480419"
       transform="matrix(-0.56608771,0.82434502,0.82434502,0.56608771,0,0)" /><circle
       style="fill:#008a80;fill-opacity:1;stroke:#535353;stroke-width:1.43486;stroke-linecap:round;stroke-linejoin:round;stroke-dasharray:none;stroke-opacity:1"
       id="circle2348"
       cx="145.47591"
       cy="72.46965"
       r="4.8801455" /><path
       id="path2350"
       style="fill:#535353;fill-opacity:1;stroke:none;stroke-width:0.420687;stroke-linecap:round;stroke-linejoin:round;stroke-dasharray:none;stroke-opacity:1"
       d="m 143.25945,68.125248 a 4.8801454,4.8801454 0 0 0 -2.66369,4.344314 4.8801454,4.8801454 0 0 0 4.88013,4.880121 4.8801454,4.8801454 0 0 0 3.71828,-1.724456 4.8801454,4.8801454 0 0 1 -2.21645,0.535811 4.8801454,4.8801454 0 0 1 -4.88012,-4.880121 4.8801454,4.8801454 0 0 1 1.16185,-3.155669 z" /><ellipse
       style="fill:#ffffff;fill-opacity:1;stroke-width:0.0411196;stroke-linecap:round;stroke-linejoin:round"
       id="ellipse2352"
       cx="82.841484"
       cy="141.27588"
       rx="0.70888466"
       ry="1.5451194"
       transform="rotate(-33.872402)" /><circle
       style="fill:#008a80;fill-opacity:1;stroke:#535353;stroke-width:1.43486;stroke-linecap:round;stroke-linejoin:round;stroke-dasharray:none;stroke-opacity:1"
       id="circle6075"
       cx="173.68674"
       cy="56.13578"
       r="4.8801455" /><path
       id="path6077"
       style="fill:#535353;fill-opacity:1;stroke:none;stroke-width:0.420687;stroke-linecap:round;stroke-linejoin:round;stroke-dasharray:none;stroke-opacity:1"
       d="m 171.47027,51.791379 a 4.8801454,4.8801454 0 0 0 -2.66369,4.344314 4.8801454,4.8801454 0 0 0 4.88013,4.880121 4.8801454,4.8801454 0 0 0 3.71828,-1.724456 4.8801454,4.8801454 0 0 1 -2.21645,0.535811 4.8801454,4.8801454 0 0 1 -4.88012,-4.880121 4.8801454,4.8801454 0 0 1 1.16185,-3.155669 z" /><ellipse
       style="fill:#ffffff;fill-opacity:1;stroke-width:0.0411196;stroke-linecap:round;stroke-linejoin:round"
       id="ellipse6079"
       cx="115.368"
       cy="143.43735"
       rx="0.70888466"
       ry="1.5451194"
       transform="rotate(-33.872402)" /><circle
       style="fill:#008a80;fill-opacity:1;stroke:#535353;stroke-width:1.435;stroke-linecap:round;stroke-linejoin:round;stroke-dasharray:none;stroke-opacity:1"
       id="circle6081"
       cx="191.37584"
       cy="72.737465"
       r="4.8801455" /><path
       id="path6083"
       style="fill:#535353;fill-opacity:1;stroke:none;stroke-width:0.420687;stroke-linecap:round;stroke-linejoin:round;stroke-dasharray:none;stroke-opacity:1"
       d="m 189.15938,68.393064 a 4.8801454,4.8801454 0 0 0 -2.66369,4.344314 4.8801454,4.8801454 0 0 0 4.88013,4.880121 4.8801454,4.8801454 0 0 0 3.71828,-1.724456 4.8801454,4.8801454 0 0 1 -2.21645,0.535811 4.8801454,4.8801454 0 0 1 -4.88012,-4.880121 4.8801454,4.8801454 0 0 1 1.16185,-3.155669 z" /><ellipse
       style="fill:#ffffff;fill-opacity:1;stroke-width:0.0411196;stroke-linecap:round;stroke-linejoin:round"
       id="ellipse6085"
       cx="120.80206"
       cy="167.08035"
       rx="0.70888466"
       ry="1.5451194"
       transform="rotate(-33.872402)" /></g></svg>
